<svg xmlns="http://www.w3.org/2000/svg" width="15" height="16" viewBox="0 0 15 16" style="fill: #a6a6a7;">
  <path id="icon-basket" data-name="icon-basket" class="IconBasketPath" fill-rule="evenodd" d="M654.169,407.533h-8.894a1.864,1.864,0,0,1-.936-0.25v1.2a0.933,0.933,0,0,0,.936.927h8.459a1.792,1.792,0,1,1-1.808,1.793,1.756,1.756,0,0,1,.249-0.9h-4.027a1.748,1.748,0,0,1,.249.9,1.808,1.808,0,0,1-3.616,0,1.784,1.784,0,0,1,.258-0.921,1.823,1.823,0,0,1-1.6-1.8v-7.455l-0.044-.478,0.044,0v-1.8l-2.17-.907a0.442,0.442,0,0,1-.239-0.582,0.45,0.45,0,0,1,.588-0.237l2.444,1.019,0.044,0.02a0.036,0.036,0,0,0,.01.007l0.026,0.016c0.007,0.007.013,0.01,0.02,0.017a0.113,0.113,0,0,1,.013.01,0.092,0.092,0,0,1,.023.02l0.01,0.009c0.007,0.007.014,0.013,0.02,0.02l0.01,0.01c0,0.006.01,0.013,0.014,0.02s0.006,0.009.01,0.016,0.006,0.01.009,0.017a0.077,0.077,0,0,1,.014.019s0,0.01.006,0.014a0.094,0.094,0,0,1,.014.026s0,0.009,0,.013,0.007,0.019.01,0.03,0,0.009,0,.016a0.25,0.25,0,0,0,.007.026c0,0.01,0,.02,0,0.03a0.026,0.026,0,0,1,0,.013,0.164,0.164,0,0,1,0,.046v1.559l11.272,1.542a0.255,0.255,0,0,0,.04.007,0.157,0.157,0,0,0,.016,0,0.055,0.055,0,0,1,.024.007c0.006,0,.013,0,0.019.006l0.02,0.01,0.02,0.01,0.02,0.01a0.113,0.113,0,0,0,.02.013,0.151,0.151,0,0,1,.017.01l0.02,0.013c0.006,0,.01.01,0.016,0.013l0.017,0.016a0.08,0.08,0,0,1,.013.013c0,0.007.01,0.01,0.013,0.017s0.01,0.01.014,0.016a0.086,0.086,0,0,1,.013.017c0,0.006.01,0.013,0.013,0.019s0.007,0.01.01,0.017,0.007,0.013.01,0.02a0.074,0.074,0,0,1,.01.016,0.174,0.174,0,0,0,.01.023c0,0.006,0,.013.007,0.02s0,0.013.006,0.02,0,0.016.007,0.022,0,0.013,0,.02,0,0.017,0,.023a0.036,0.036,0,0,1,0,.02v3.749A1.827,1.827,0,0,1,654.169,407.533Zm-0.432,4.575a0.9,0.9,0,1,0-.912-0.905A0.911,0.911,0,0,0,653.737,412.108Zm-7.145,0a0.9,0.9,0,1,0-.912-0.905A0.91,0.91,0,0,0,646.592,412.108Z" transform="translate(-641 -397)"/>
</svg>
