<svg xmlns="http://www.w3.org/2000/svg" width="20" height="15" viewBox="0 0 20 15">
  <defs>
    <style>
      .IconBookPath {
        fill-rule: evenodd;
      }
    </style>
  </defs>
  <path id="icon-book" data-name="icon-book" class="IconBookPath" d="M130.731,589.845a0.726,0.726,0,0,1-.607.136,17.53,17.53,0,0,0-7.576-.144,8.031,8.031,0,0,1,5.392-1.807,1.814,1.814,0,0,0,1.825-1.793v-8.808h0.519a0.71,0.71,0,0,1,.716.7V589.3A0.694,0.694,0,0,1,130.731,589.845Zm-2.793-2.906a8.953,8.953,0,0,0-6.382,2.323V578.237a0.668,0.668,0,0,1,.1-0.356c1.58-2.5,4.617-2.878,6.287-2.881h0a0.716,0.716,0,0,1,.5.2,0.7,0.7,0,0,1,.21.5v10.535A0.711,0.711,0,0,1,127.938,586.939Zm-13.876,0a0.711,0.711,0,0,1-.716-0.7V575.7a0.7,0.7,0,0,1,.21-0.5,0.716,0.716,0,0,1,.5-0.2h0c1.67,0,4.707.383,6.287,2.881a0.668,0.668,0,0,1,.1.356v11.025A8.953,8.953,0,0,0,114.062,586.939Zm5.39,2.9a17.53,17.53,0,0,0-7.576.144,0.724,0.724,0,0,1-.607-0.136A0.694,0.694,0,0,1,111,589.3V578.131a0.71,0.71,0,0,1,.716-0.7h0.518v8.808a1.815,1.815,0,0,0,1.825,1.793A8.033,8.033,0,0,1,119.452,589.837Z" transform="translate(-111 -575)"/>
</svg>
