<svg xmlns="http://www.w3.org/2000/svg" width="7" height="7" viewBox="0 0 10.031 10">
  <defs>
    <style>
      .IconClosePath {
        fill-rule: evenodd;
      }
    </style>
  </defs>
  <path id="icon-close" data-name="icon-close" class="IconClosePath" d="M860.546,277l3.392-3.391a0.206,0.206,0,0,0,0-.294l-1.253-1.253a0.208,0.208,0,0,0-.147-0.061,0.211,0.211,0,0,0-.148.061L859,275.453l-3.392-3.391a0.215,0.215,0,0,0-.295,0l-1.253,1.253a0.208,0.208,0,0,0,0,.294L857.45,277l-3.392,3.391a0.209,0.209,0,0,0,0,.295l1.253,1.253a0.209,0.209,0,0,0,.295,0L859,278.548l3.392,3.391a0.211,0.211,0,0,0,.148.061,0.208,0.208,0,0,0,.147-0.061l1.253-1.253a0.208,0.208,0,0,0,0-.295Z" transform="translate(-854 -272)"/>
</svg>
