<svg xmlns="http://www.w3.org/2000/svg" width="18" height="18" viewBox="0 0 18 18">
  <defs>
    <style>
      .IconCoinsPath {
        fill-rule: evenodd;
      }
    </style>
  </defs>
  <path id="icon-coins" data-name="icon-coins" class="IconCoinsPath" d="M128.562,617.279h0a1.815,1.815,0,0,0,.188-0.78v-1.125c0-1.864-3.022-3.375-6.75-3.375s-6.75,1.511-6.75,3.375a1.766,1.766,0,0,1,.027-0.273c-1.394.618-2.277,1.519-2.277,2.523v1.125c0,1.043.949,1.976,2.438,2.6h0a1.812,1.812,0,0,0-.188.78v1.125a1.807,1.807,0,0,1,0,2.25v1.125c0,1.863,3.022,3.375,6.75,3.375s6.75-1.512,6.75-3.375V625.5a1.952,1.952,0,0,0-.405-1.143,0.05,0.05,0,0,0-.007.008,2.071,2.071,0,0,0,.385-0.843C130.117,622.9,131,622,131,621v-1.125C131,618.831,130.051,617.9,128.562,617.279ZM122,612.562c3.646,0,6.187,1.482,6.187,2.813s-2.541,2.812-6.187,2.812-6.188-1.483-6.188-2.812S118.354,612.562,122,612.562Zm-8.438,5.063a2.527,2.527,0,0,1,1.688-1.882V616.5c0,1.863,3.022,3.375,6.75,3.375a13.339,13.339,0,0,0,1.613-.1,10.852,10.852,0,0,1-3.863.663C116.1,620.437,113.562,618.954,113.562,617.625Zm14.625,7.875c0,1.329-2.541,2.812-6.187,2.812s-6.188-1.483-6.188-2.812a1.34,1.34,0,0,1,.228-0.667l0-.006c1.132,1.069,3.378,1.8,5.964,1.8a9.042,9.042,0,0,0,5.955-1.8l0,0A1.329,1.329,0,0,1,128.187,625.5Zm-2.322-1.226a10.837,10.837,0,0,1-3.865.663c-3.646,0-6.188-1.483-6.188-2.812a1.263,1.263,0,0,1,.166-0.576,10.679,10.679,0,0,0,1.813.43c0.839,1.386,3.412,2.4,6.459,2.4a13.222,13.222,0,0,0,1.619-.1h0Zm-1.615-1.587a11,11,0,0,1-3.711-.6c3.172-.186,5.676-1.46,5.933-3.064a4.786,4.786,0,0,0,1.774-1.243h0c1.362,0.553,2.192,1.344,2.192,2.1C130.437,621.2,127.9,622.687,124.25,622.687Z" transform="translate(-113 -612)"/>
</svg>
