<svg xmlns="http://www.w3.org/2000/svg" width="13" height="16" viewBox="0 0 13 16">
  <defs>
    <style>
      .IconDownloadPath {
        fill-rule: evenodd;
      }
    </style>
  </defs>
  <path id="icon-download" data-name="icon-download" class="IconDownloadPath" d="M922.351,3373h-11.7a0.648,0.648,0,0,1-.648-0.64v-0.85a0.647,0.647,0,0,1,.648-0.64h11.708a0.632,0.632,0,0,1,.644.64v0.85A0.647,0.647,0,0,1,922.351,3373Zm-0.955-7.65-4.434,4.37a0.623,0.623,0,0,1-.456.19,0.633,0.633,0,0,1-.457-0.19l-4.439-4.37a0.644,0.644,0,0,1,0-.91l0.614-.6a0.656,0.656,0,0,1,.918,0l2.282,2.25v-8.45a0.64,0.64,0,0,1,.648-0.64h0.865a0.648,0.648,0,0,1,.648.64v8.45l2.279-2.25a0.657,0.657,0,0,1,.919,0l0.613,0.6A0.642,0.642,0,0,1,921.4,3365.35Z" transform="translate(-910 -3357)"/>
</svg>
