<svg xmlns="http://www.w3.org/2000/svg" width="19" height="23" viewBox="0 0 19 23">
  <defs>
    <style>
      .IconFilterPath {        
        fill-rule: evenodd;
      }
    </style>
  </defs>
  <path id="icon-filter" data-name="icon-filter" class="IconFilterPath" d="M124,40.434A0.433,0.433,0,0,0,123.568,40H105.432a0.433,0.433,0,0,0-.432.434v3.408s0,0.006,0,.009a0.4,0.4,0,0,0,0,.049c0,0.012,0,.025,0,0.037a0.3,0.3,0,0,0,.013.041,0.3,0.3,0,0,0,.014.041c0.005,0.011.011,0.022,0.017,0.033s0.016,0.029.025,0.042l0,0.008,6.955,9.424v9.041a0.432,0.432,0,0,0,.639.381l4.056-2.23a0.434,0.434,0,0,0,.225-0.381V53.525l6.955-9.424a0.031,0.031,0,0,0,0-.008,0.369,0.369,0,0,0,.026-0.042c0.006-.011.012-0.021,0.017-0.033a0.3,0.3,0,0,0,.014-0.041,0.308,0.308,0,0,0,.013-0.041c0-.012,0-0.024,0-0.037a0.4,0.4,0,0,0,0-.049s0-.006,0-0.009V40.434h0Z" transform="translate(-105 -40)"/>
</svg>
