<svg xmlns="http://www.w3.org/2000/svg" width="15" height="13" viewBox="0 0 15 13">
  <defs>
    <style>
      .IconForwardPath {
        fill: #a6a6a7;
        fill-rule: evenodd;
      }
    </style>
  </defs>
  <path id="icon-forward" data-name="icon-forward" class="IconForwardPath" d="M995.841,261.315l-4.286-4.16a0.537,0.537,0,0,0-.753,0,0.493,0.493,0,0,0-.159.366v2.08h-1.875q-5.969,0-7.325,3.273A7.22,7.22,0,0,0,981,265.58a9.529,9.529,0,0,0,1.063,3.664l0.088,0.194c0.042,0.093.079,0.174,0.113,0.244a0.913,0.913,0,0,0,.109.179,0.288,0.288,0,0,0,.234.138,0.249,0.249,0,0,0,.2-0.081,0.3,0.3,0,0,0,.071-0.2,1.587,1.587,0,0,0-.021-0.215,1.642,1.642,0,0,1-.021-0.191q-0.042-.554-0.042-1a6.692,6.692,0,0,1,.147-1.47,4.31,4.31,0,0,1,.406-1.125,2.843,2.843,0,0,1,.669-0.82,3.927,3.927,0,0,1,.883-0.565,4.926,4.926,0,0,1,1.114-.345,10.788,10.788,0,0,1,1.289-.175q0.648-.05,1.469-0.049h1.875v2.08a0.49,0.49,0,0,0,.159.365,0.535,0.535,0,0,0,.753,0l4.286-4.159A0.5,0.5,0,0,0,995.841,261.315Z" transform="translate(-981 -257)"/>
</svg>
