<svg xmlns="http://www.w3.org/2000/svg" width="70" height="64" viewBox="0 0 70 64">
  <defs>
    <style>
      .IconGearsPath {
        fill-rule: evenodd;
      }
    </style>
  </defs>
  <path id="icon-gears" data-name="icon-gears" class="IconGearsPath" d="M229.565,3025.25a10.187,10.187,0,0,1-1.093,1.89q1.859,4.11,1.859,5.02a0.3,0.3,0,0,1-.145.25q-4.448,2.58-4.521,2.58a5.761,5.761,0,0,1-1.677-1.71c-0.924-1.13-1.556-1.96-1.9-2.47-0.486.05-.85,0.08-1.093,0.08s-0.608-.03-1.094-0.08c-0.339.51-.972,1.34-1.9,2.47a5.761,5.761,0,0,1-1.677,1.71q-0.073,0-4.521-2.58a0.3,0.3,0,0,1-.145-0.25q0-.915,1.858-5.02a10.187,10.187,0,0,1-1.093-1.89q-5.433-.54-5.433-1.12v-5.09q0-.585,5.433-1.12a9.706,9.706,0,0,1,1.093-1.89q-1.859-4.11-1.858-5.02a0.31,0.31,0,0,1,.145-0.25c0.1-.05.522-0.29,1.276-0.73s1.471-.85,2.152-1.23a9.578,9.578,0,0,1,1.093-.59,5.836,5.836,0,0,1,1.677,1.69q1.385,1.7,1.9,2.46c0.487-.05.85-0.08,1.094-0.08s0.607,0.03,1.093.08a33.3,33.3,0,0,1,3.354-4.07l0.219-.08q0.145,0,4.521,2.55a0.312,0.312,0,0,1,.145.25q0,0.915-1.859,5.02a9.606,9.606,0,0,1,1.093,1.89q5.433,0.54,5.433,1.12v5.09Q235,3024.715,229.565,3025.25Zm-5.285-6.93a4.584,4.584,0,1,0,1.385,3.27A4.465,4.465,0,0,0,224.28,3018.32Zm5.285-30.27a10.878,10.878,0,0,1-1.093,1.89q1.859,4.095,1.859,5.01a0.3,0.3,0,0,1-.145.25q-4.448,2.58-4.521,2.58a5.645,5.645,0,0,1-1.677-1.7c-0.924-1.14-1.556-1.97-1.9-2.47-0.486.04-.85,0.07-1.093,0.07s-0.608-.03-1.094-0.07c-0.339.5-.972,1.33-1.9,2.47a5.645,5.645,0,0,1-1.677,1.7q-0.073,0-4.521-2.58a0.3,0.3,0,0,1-.145-0.25q0-.915,1.858-5.01a10.878,10.878,0,0,1-1.093-1.89c-3.622-.37-5.433-0.74-5.433-1.13v-5.09c0-.38,1.811-0.76,5.433-1.12a10.011,10.011,0,0,1,1.093-1.89q-1.859-4.11-1.858-5.02a0.31,0.31,0,0,1,.145-0.25c0.1-.05.522-0.29,1.276-0.73s1.471-.85,2.152-1.23a8.456,8.456,0,0,1,1.093-.58,5.717,5.717,0,0,1,1.677,1.68q1.385,1.7,1.9,2.46c0.487-.05.85-0.07,1.094-0.07s0.607,0.02,1.093.07a33.3,33.3,0,0,1,3.354-4.07l0.219-.07c0.1,0,1.6.84,4.521,2.54a0.312,0.312,0,0,1,.145.25q0,0.915-1.859,5.02a9.606,9.606,0,0,1,1.093,1.89c3.622,0.36,5.433.74,5.433,1.12v5.09C235,2987.31,233.187,2987.68,229.565,2988.05Zm-5.285-6.94a4.6,4.6,0,1,0,1.385,3.27A4.494,4.494,0,0,0,224.28,2981.11Zm-17.1,9.52c-0.291.38-.8,1.04-1.531,1.96s-1.276,1.65-1.641,2.18a25.132,25.132,0,0,1,1.241,2.98l5.541,0.84a1,1,0,0,1,.62.38,1.064,1.064,0,0,1,.254.7v6.73a1.217,1.217,0,0,1-.254.71,0.865,0.865,0,0,1-.584.38l-5.651.87a17.645,17.645,0,0,1-1.166,2.76c0.826,1.16,1.92,2.56,3.281,4.18a1.245,1.245,0,0,1,.255.73,0.894,0.894,0,0,1-.255.68,37.131,37.131,0,0,1-3.008,3.26q-2.169,2.16-2.861,2.16a1.309,1.309,0,0,1-.766-0.25l-4.193-3.27a17.365,17.365,0,0,1-2.807,1.12,43.089,43.089,0,0,1-.838,5.63,1.075,1.075,0,0,1-1.094.88h-6.78a1.132,1.132,0,0,1-.73-0.28,0.927,0.927,0,0,1-.364-0.63l-0.839-5.56a16.6,16.6,0,0,1-2.734-1.13l-4.3,3.24a0.98,0.98,0,0,1-.728.25,1.232,1.232,0,0,1-.766-0.29q-5.25-4.83-5.25-5.81a1.2,1.2,0,0,1,.255-0.69c0.243-.34.741-0.99,1.5-1.93s1.325-1.69,1.714-2.22a18.4,18.4,0,0,1-1.277-2.98l-5.541-.87a0.9,0.9,0,0,1-.62-0.34,1.105,1.105,0,0,1-.255-0.71v-6.72a1.167,1.167,0,0,1,.255-0.71,0.832,0.832,0,0,1,.583-0.38l5.651-.88a18.588,18.588,0,0,1,1.166-2.76q-1.239-1.74-3.28-4.18a1.332,1.332,0,0,1-.255-0.72,1.06,1.06,0,0,1,.255-0.73,30.678,30.678,0,0,1,2.989-3.23c1.458-1.43,2.418-2.15,2.881-2.15a1.321,1.321,0,0,1,.765.26l4.192,3.27a17.542,17.542,0,0,1,2.807-1.17,41.613,41.613,0,0,1,.839-5.59,1.065,1.065,0,0,1,1.094-.87h6.78a1.121,1.121,0,0,1,.729.27,0.924,0.924,0,0,1,.365.63l0.838,5.56a16.6,16.6,0,0,1,2.734,1.13l4.3-3.23a1.074,1.074,0,0,1,.73-0.26,1.231,1.231,0,0,1,.765.29q5.248,4.83,5.25,5.82A1.257,1.257,0,0,1,207.181,2990.63Zm-12.249,5.77a9.285,9.285,0,1,0,2.734,6.58A9.026,9.026,0,0,0,194.932,2996.4Z" transform="translate(-165 -2971)"/>
</svg>
