<svg xmlns="http://www.w3.org/2000/svg" width="74" height="68" viewBox="0 0 74 68">
  <path id="icon-hardware" data-name="icon-hardware" class="IconHardwarePath" fill-rule="evenodd" d="M193.446,185.94v-7.912H228l-8.953-15.116V127.94H163.229v33.977l-9.237,16.111h34.636v7.887a5.085,5.085,0,0,0-3.6,3.4H164.542v3.926h20.845a5.088,5.088,0,0,0,4.487,2.712h2.243a5.088,5.088,0,0,0,4.487-2.712H212.55v-3.926H196.964A5.083,5.083,0,0,0,193.446,185.94Zm-26.981-54.815H215.9v28.9H166.465v-28.9Zm-6.925,43.717,6.67-11.633H215.9v0.575l6.551,11.058H159.54Zm37.368-9.473H185.083l-2.824,7.514h17.473Zm-11.772,5.523,1.328-3.531h9.063l1.328,3.531H185.136Z" transform="translate(-154 -127.938)"/>
</svg>
