<svg xmlns="http://www.w3.org/2000/svg" viewBox="0 0 17.63 30"><defs><style>.cls-1{fill:#a6a6a7;}</style></defs><title>Komu_1</title><g id="Слой_2" data-name="Слой 2"><g id="Слой_1-2" data-name="Слой 1"><path class="cls-1" d="M0,30V28.59s0-1.06.71-1.41,3.43-1.49,4.52-1.94a3.13,3.13,0,0,0,1-.72,1.39,1.39,0,0,0,.43-.87V22.59a9.1,9.1,0,0,1-2.82-2.11A17.06,17.06,0,0,1,2.47,17s-.35.71-1.06,0c-.54-.54-.67-2.34-.7-3.14a1.55,1.55,0,0,1,.22-.87c.13-.22.3-.4.48-.22,0,0-.7-5.29-.7-6.35S1.06,2.14,3.53,3.9A14.32,14.32,0,0,1,6.35.37c1.41-1,4.58.36,6,1.42a36.36,36.36,0,0,1,3.18,2.82,3.29,3.29,0,0,1,1.06,2.82,31,31,0,0,1-.71,5.29s.71-.35.71,1.06v1.93a1.8,1.8,0,0,1-.47,1.23c-.2.22-.43.33-.59,0,0,0-1.06,4.59-4.59,5.64v1.06A1.84,1.84,0,0,0,12,25.06l4.94,2.47c.7.35.7,1.41.7,1.41V30Z"/></g></g></svg>