<?xml version="1.0" encoding="utf-8"?>
<!-- Generator: Adobe Illustrator 21.0.0, SVG Export Plug-In . SVG Version: 6.00 Build 0)  -->
<svg version="1.1" id="Capa_1" xmlns="http://www.w3.org/2000/svg" xmlns:xlink="http://www.w3.org/1999/xlink" x="0px" y="0px"
	 viewBox="0 0 32.4 36" style="enable-background:new 0 0 32.4 36;" xml:space="preserve">
<style type="text/css">
	.st0{fill:#A6A6A6;}
</style>
<g>
	<path class="st0" d="M23.6,0.2l-7.8,3.9c-0.1,0.1-0.2,0.2-0.2,0.3v11.8l-6.7-3.3c-0.2-0.1-0.5-0.1-0.7,0l-7.9,3.9
		C0.1,16.9,0,17,0,17.1v18.4C0,35.8,0.2,36,0.5,36H32c0.2,0,0.5-0.2,0.5-0.5V4.4c0-0.1-0.1-0.3-0.2-0.3l-7.9-3.9
		C24,0.1,23.8,0.1,23.6,0.2z M5.3,29.7H3.2v-2.1h2.1V29.7z M5.3,25.5H3.2v-2.1h2.1V25.5z M9.6,29.7H7.5v-2.1h2.1V29.7z M9.6,25.5
		H7.5v-2.1h2.1V25.5z M13.8,29.7h-2.1v-2.1h2.1C13.8,27.6,13.8,29.7,13.8,29.7z M13.8,25.5h-2.1v-2.1h2.1
		C13.8,23.4,13.8,25.5,13.8,25.5z M20.7,29.8h-2.1v-2.1h2.1V29.8z M20.7,25.6h-2.1v-2.1h2.1V25.6z M20.7,21.4h-2.1v-2.1h2.1V21.4z
		 M20.7,17.2h-2.1V15h2.1V17.2z M20.7,12.9h-2.1v-2.1h2.1V12.9z M25,29.8h-2.1v-2.1H25V29.8z M25,25.6h-2.1v-2.1H25V25.6z M25,21.4
		h-2.1v-2.1H25V21.4z M25,17.2h-2.1V15H25V17.2z M25,12.9h-2.1v-2.1H25V12.9z M29.2,29.8h-2.1v-2.1h2.1V29.8z M29.2,25.6h-2.1v-2.1
		h2.1V25.6z M29.2,21.4h-2.1v-2.1h2.1V21.4z M29.2,17.2h-2.1V15h2.1V17.2z M29.2,12.9h-2.1v-2.1h2.1V12.9z"/>
</g>
</svg>
