<svg xmlns="http://www.w3.org/2000/svg" width="16" height="16" viewBox="0 0 16 16">
  <defs>
    <style>
      .IconPhonePath {
        fill-rule: evenodd;
      }
    </style>
  </defs>
  <path id="icon-phone" data-name="icon-phone" class="IconPhonePath" d="M562.771,3364.72a7.91,7.91,0,0,0-6.689-6.49l0.173-1.23a9.01,9.01,0,0,1,5.194,2.59,9.137,9.137,0,0,1,2.551,4.92Zm-3.549-2.96a5.469,5.469,0,0,1,1.535,2.96l-1.229.21a4.265,4.265,0,0,0-3.609-3.5l0.173-1.24A5.47,5.47,0,0,1,559.222,3361.76Zm-6,3.97a12.329,12.329,0,0,0,2.963,2.69c0.247,0.16.52,0.27,0.776,0.41a0.236,0.236,0,0,0,.326-0.06c0.39-.4.786-0.79,1.183-1.19a1.129,1.129,0,0,1,1.694,0c0.636,0.64,1.272,1.27,1.9,1.9a1.139,1.139,0,0,1-.007,1.73c-0.359.36-.742,0.71-1.082,1.09a2.142,2.142,0,0,1-1.828.69,7.578,7.578,0,0,1-2.907-.84,15.806,15.806,0,0,1-5.247-4.11,14.313,14.313,0,0,1-2.56-4.26,5.555,5.555,0,0,1-.427-2.38,1.933,1.933,0,0,1,.606-1.3c0.407-.38.789-0.79,1.189-1.18a1.13,1.13,0,0,1,1.695,0c0.323,0.31.639,0.64,0.959,0.96s0.619,0.61.929,0.93a1.12,1.12,0,0,1,0,1.73c-0.39.4-.776,0.79-1.172,1.17a0.241,0.241,0,0,0-.06.31A7,7,0,0,0,553.222,3365.73Z" transform="translate(-548 -3357)"/>
</svg>
