<svg xmlns="http://www.w3.org/2000/svg" width="25" height="23" viewBox="0 0 25 23">
  <defs>
    <style>
      .IconPursePath {        
        fill-rule: evenodd;
      }
    </style>
  </defs>
  <path id="icon-purse" data-name="icon-purse" class="IconPursePath" d="M1171.72,71.394h-7.33a0.276,0.276,0,0,1-.28-0.279V66.276a0.276,0.276,0,0,1,.28-0.279h7.33a0.283,0.283,0,0,1,.28.279v4.838A0.283,0.283,0,0,1,1171.72,71.394Zm-8.55-6.048v6.7a0.276,0.276,0,0,0,.28.279h7.7v5.4a0.276,0.276,0,0,1-.28.279h-23.59a0.283,0.283,0,0,1-.28-0.279V59.67a0.283,0.283,0,0,1,.28-0.279h23.59a0.276,0.276,0,0,1,.28.279v5.4h-7.7A0.276,0.276,0,0,0,1163.17,65.346Zm5.64-10.34a0.275,0.275,0,0,1,.33.212l0.73,3.242h-16.85Z" transform="translate(-1147 -55)"/>
</svg>
