<svg xmlns="http://www.w3.org/2000/svg" width="40" height="40" viewBox="0 0 40 40">
  <defs>
    <style>
      .IconQuestionCirclePath {
        fill-rule: evenodd;
      }
    </style>
  </defs>
  <path id="icon-question-circle" data-name="icon-question-circle" class="IconQuestionCirclePath" d="M136,981a20,20,0,1,1,20-20A20.023,20.023,0,0,1,136,981Zm0-38.462A18.462,18.462,0,1,0,154.461,961,18.484,18.484,0,0,0,136,942.538Zm3.332,16.713a5.883,5.883,0,0,0-2.563,4.947v2.186a0.769,0.769,0,1,1-1.538,0V964.2a7.338,7.338,0,0,1,3.267-6.24,4.594,4.594,0,0,0,2.117-3.947,4.7,4.7,0,0,0-4.549-4.549,4.615,4.615,0,0,0-4.681,4.615,0.77,0.77,0,0,1-1.539,0A6.154,6.154,0,0,1,136,947.923h0.089a6.2,6.2,0,0,1,6.066,6.065A6.126,6.126,0,0,1,139.332,959.251ZM136,969.461a0.769,0.769,0,0,1,.769.769v1.539a0.769,0.769,0,0,1-1.538,0V970.23A0.769,0.769,0,0,1,136,969.461Z" transform="translate(-116 -941)"/>
</svg>
