<svg xmlns="http://www.w3.org/2000/svg" width="20" height="20" viewBox="0 0 20 20">
  <defs>
    <style>
      .IconQuestionInvertPath {
        fill-rule: evenodd;
      }
    </style>
  </defs>
  <path id="icon-question-invert" data-name="icon-question-invert" class="IconQuestionInvertPath" d="M129.66,411.98a9.949,9.949,0,0,0-3.639-3.64,10.062,10.062,0,0,0-10.041,0,9.951,9.951,0,0,0-3.64,3.64,10.067,10.067,0,0,0,0,10.04,9.959,9.959,0,0,0,3.64,3.64,10.067,10.067,0,0,0,10.04,0,9.951,9.951,0,0,0,3.64-3.64A10.067,10.067,0,0,0,129.66,411.98Zm-6.993,11.271a0.4,0.4,0,0,1-.416.416h-2.5a0.4,0.4,0,0,1-.417-0.416v-2.5a0.4,0.4,0,0,1,.417-0.416h2.5a0.4,0.4,0,0,1,.416.416v2.5Zm3.171-7.7a3.4,3.4,0,0,1-.365.788,2.981,2.981,0,0,1-.579.625,5.415,5.415,0,0,1-.6.456q-0.222.137-.638,0.371a2.2,2.2,0,0,0-.71.645,1.244,1.244,0,0,0-.28.644,0.4,0.4,0,0,1-.416.417h-2.5a0.4,0.4,0,0,1-.416-0.417v-0.469a2.409,2.409,0,0,1,.683-1.634,4.47,4.47,0,0,1,1.5-1.127,2.633,2.633,0,0,0,.886-0.586,1.163,1.163,0,0,0,.26-0.794,0.945,0.945,0,0,0-.488-0.768,2.075,2.075,0,0,0-2.233-.026,6.439,6.439,0,0,0-1.12,1.2,0.386,0.386,0,0,1-.326.156,0.366,0.366,0,0,1-.247-0.078l-1.719-1.3a0.372,0.372,0,0,1-.105-0.547,5.32,5.32,0,0,1,4.832-2.774,5.072,5.072,0,0,1,4.018,2.045A3.5,3.5,0,0,1,126,414.5,3.288,3.288,0,0,1,125.838,415.554Z" transform="translate(-111 -407)"/>
</svg>
