<svg xmlns="http://www.w3.org/2000/svg" width="56" height="56" viewBox="0 0 56 56">
  <defs>
    <style>
      .IconRocketPath {
        fill-rule: evenodd;
      }
    </style>
  </defs>
  <path id="icon-rocket" data-name="icon-rocket" class="IconRocketPath" d="M1161.59,3009.19a1.148,1.148,0,0,0-.44,1.26l0.84,3.51a3.79,3.79,0,0,1-.91,3.19l-13.44,13.42c-0.73.74-1.47,0.5-1.63-.53l-1.53-9.71a4.221,4.221,0,0,1,1.05-3.22,0.7,0.7,0,0,0-.03-1.02c-2.64-2.65-7.81-7.8-10.59-10.58a0.693,0.693,0,0,0-1,0,4.231,4.231,0,0,1-3.23,1.05l-9.72-1.53c-1.03-.16-1.27-0.9-0.53-1.64l13.44-13.41a3.79,3.79,0,0,1,3.19-.91l3.66,0.87a1.6,1.6,0,0,0,1.52-.44c11.75-10.8,26.93-17.91,32.04-12.82C1179.41,2981.8,1172.48,2997.45,1161.59,3009.19Zm4.79-24.3a5.823,5.823,0,1,0,0,8.23A5.818,5.818,0,0,0,1166.38,2984.89Zm-31.83,25.63,6.15,6.14c0.88,0.88.44,1.19,0.25,1.38-4.94,4.93-6.34,3.67-14.77,7.9-2.32,1.16,2.06-10.73,7-15.66C1133.37,3010.09,1133.69,3009.66,1134.55,3010.52Z" transform="translate(-1120 -2975)"/>
</svg>
