<svg xmlns="http://www.w3.org/2000/svg" width="31.03" height="40" viewBox="0 0 31.03 40">
  <defs>
    <style>
      .IconSertificatePath {        
        fill-rule: evenodd;
      }
    </style>
  </defs>
  <path id="icon-sertificate" data-name="icon-sertificate" class="IconSertificatePath" d="M1122.66,210.871l-3,3.144,0.6,4.333a1.24,1.24,0,0,1-1,1.395l-3.4.6v13.411a1.245,1.245,0,0,1-.58,1.055,1.209,1.209,0,0,1-1.19.055l-6.59-3.343-6.59,3.343a1.228,1.228,0,0,1-.55.131,1.194,1.194,0,0,1-.64-0.186,1.244,1.244,0,0,1-.58-1.055V220.347l-3.4-.6a1.24,1.24,0,0,1-1-1.4l0.6-4.334-3-3.143a1.249,1.249,0,0,1,0-1.724l3-3.144-0.6-4.331a1.239,1.239,0,0,1,1-1.4l4.25-.755,2.02-3.865a1.207,1.207,0,0,1,1.61-.533l3.88,1.921,3.87-1.921a1.216,1.216,0,0,1,1.62.532l2.02,3.866,4.25,0.755a1.239,1.239,0,0,1,1,1.4l-0.6,4.331,3,3.144A1.268,1.268,0,0,1,1122.66,210.871Zm-21.08,20.881,5.37-2.721a1.218,1.218,0,0,1,1.1,0l5.37,2.721v-8.2l-0.43.811a1.22,1.22,0,0,1-1.08.659,1.24,1.24,0,0,1-.54-0.127l-3.87-1.921-3.88,1.921a1.207,1.207,0,0,1-1.61-.532l-0.43-.812v8.2Zm15.9-24.46a1.267,1.267,0,0,1-.33-1.036l0.52-3.743-3.67-.653a1.236,1.236,0,0,1-.87-0.639l-1.75-3.341-3.34,1.66a1.227,1.227,0,0,1-1.08,0l-3.35-1.66-1.74,3.34a1.232,1.232,0,0,1-.87.64l-3.68.653,0.53,3.743a1.267,1.267,0,0,1-.33,1.036l-2.6,2.718,2.59,2.717a1.24,1.24,0,0,1,.34,1.035l-0.53,3.746,3.68,0.653a1.234,1.234,0,0,1,.87.64l1.74,3.339,3.35-1.661a1.22,1.22,0,0,1,1.08,0l3.34,1.661,1.75-3.34a1.236,1.236,0,0,1,.87-0.639l3.67-.653-0.52-3.746a1.266,1.266,0,0,1,.33-1.035l2.59-2.717Zm-9.98,11.2a8.481,8.481,0,1,1,8.36-8.481A8.431,8.431,0,0,1,1107.5,218.491Zm0-14.481a6,6,0,1,0,5.91,6A5.97,5.97,0,0,0,1107.5,204.01Zm4.22,4.608-4.48,4.538a1.191,1.191,0,0,1-.86.363,1.207,1.207,0,0,1-.86-0.363l-2.24-2.268a1.247,1.247,0,0,1,0-1.753,1.211,1.211,0,0,1,1.73,0l1.37,1.392,3.61-3.662a1.212,1.212,0,0,1,1.73,0A1.248,1.248,0,0,1,1111.72,208.618Z" transform="translate(-1092 -195)"/>
</svg>
