<svg xmlns="http://www.w3.org/2000/svg" width="81.752" height="77.688" viewBox="0 0 81.752 77.688">
  <defs>
    <style>
      .IconServicesPath {        
        fill-rule: evenodd;
      }
    </style>
  </defs>
  <path id="icon-services" data-name="icon-services" class="IconServicesPath" d="M972.6,161.571a4.1,4.1,0,0,0-.36-1.215,1.868,1.868,0,0,0-1.8-.554c-2.02.4-2.628,0.878-4.646,1.273-0.466.091-1.1,0.212-1.558,0.254a20.1,20.1,0,0,1-2.112.01c-0.419,0-.844-0.018-1.261-0.031a10.849,10.849,0,0,1-2.819-.735c-1.457-.35-2.277-0.656-3.434-0.89a2.091,2.091,0,0,0-1.97.693,5.859,5.859,0,0,0-1.176,2.585c-0.279,1-.526,2.014-0.795,3.019q-0.761,2.816-1.53,5.629c-0.323,1.193-.654,2.384-0.968,3.58a21.776,21.776,0,0,0-.658,2.777,3.21,3.21,0,0,0,.594,2.215,0.908,0.908,0,0,1,.068.768c-0.623,1.243-2.123,3.682-2.445,4.446a2.769,2.769,0,0,1-1.153,1.318c-1.046.668-5.019,3.462-6.252,4.384a2.7,2.7,0,0,0,.984,4.8,3.674,3.674,0,0,0,2.671-.663c0.941-.667,4.82-3.4,6.123-4.287,0.306-.208.629-0.39,0.931-0.6,0.945-.656,3.637-6.082,3.924-6.725,0.171-.385.333-0.429,0.726-0.263,1.563,0.662,3.006,1.172,4.581,1.806,0.329,0.132.656,0.272,0.979,0.415a1.039,1.039,0,0,1,.521,1.042c0.132,0.8.272,2.3,0.376,3.132,0.183,1.473.333,2.95,0.5,4.425a3.073,3.073,0,0,0,2.431,2.46,2.817,2.817,0,0,0,3.133-2.986c-0.247-2.282-.534-4.563-0.826-6.841-0.146-1.127-.362-2.246-0.514-3.373a2.475,2.475,0,0,0-1.787-2.184c-1.628-.585-3.21-1.3-4.8-1.98a2.191,2.191,0,0,1-1.1-.624,2.341,2.341,0,0,1,.231-1.243q0.807-3.128,1.625-6.251c0.2-.751.419-1.5,0.629-2.243a0.8,0.8,0,0,0-.45-1.076c-1.624-.9-3.251-1.81-4.79-2.846a2.113,2.113,0,0,1-.561-3.1,2.222,2.222,0,0,1,3.134-.665c2.139,1.255,4.267,2.529,6.414,3.771a1.444,1.444,0,0,0,.892.186c2.644-.477,4.052-0.969,6.684-1.509a1.983,1.983,0,0,0,1.368-.864A1.715,1.715,0,0,0,972.6,161.571Zm-14.352-12.792c-3.175.106-5.389,3.691-4.833,6.577a5.79,5.79,0,0,0,11.4-2.047C964.388,150.7,961.439,147.929,958.244,148.779Zm9.739,16.208c-1.251.192-2.5,0.4-3.75,0.566a1.441,1.441,0,0,1-.842-0.161c-2.221-1.287-4.422-2.61-6.641-3.9a1.95,1.95,0,0,0-2.42.357,1.869,1.869,0,0,0-.142,2.435,3.273,3.273,0,0,0,.9.731c1.574,0.952,3.164,1.881,4.748,2.82,0.894,0.53,1.763,1.117,2.7,1.569a2.831,2.831,0,0,0,1.525.228c2.153-.283,4.3-0.625,6.441-0.982a14.933,14.933,0,0,0,2.357-.578,1.706,1.706,0,0,0,1.169-1.623,1.734,1.734,0,0,0-.976-1.8,2.686,2.686,0,0,0-1.369-.234c-1.24.132-2.465,0.36-3.7,0.55A0.093,0.093,0,0,0,967.983,164.987Zm2.392-33.82c-0.226.355-.454,0.643-0.14,0.972,0.654,0.69,1.28,1.409,1.928,2.1,0.914,0.98,1.851,1.938,2.745,2.936a0.834,0.834,0,0,1,.049.67c-0.4,1.34-.818,2.678-1.27,4a0.97,0.97,0,0,1-.546.562c-0.767.2-1.556,0.318-2.335,0.469-0.606.118-1.21,0.242-1.818,0.359-0.764.146-1.527,0.3-2.293,0.427a1.886,1.886,0,0,0-1.219,1.955c0.132,1.278.21,2.563,0.323,3.843,0.076,0.867.093,1.814,1.124,2.13a6.321,6.321,0,0,0,1.636.121c1.83,0.058,3.659.095,5.486,0.168a0.687,0.687,0,0,1,.46.343c0.653,1.228,1.266,2.478,1.917,3.707a0.9,0.9,0,0,1-.15,1.271,5.714,5.714,0,0,0-.545.708c-0.641.925-1.3,1.838-1.9,2.791a14.855,14.855,0,0,0-1.2,2.253,1.19,1.19,0,0,0,.246,1.022c0.613,0.648,1.323,1.205,2,1.793,0.624,0.542,1.276,1.054,1.877,1.622a1.66,1.66,0,0,0,2.222.051q2.333-2.2,4.662-4.4a0.848,0.848,0,0,1,1.043-.172,22.543,22.543,0,0,0,3.455,1.15,1.086,1.086,0,0,1,1.037,1.12c0.164,0.736.267,1.486,0.4,2.229,0.228,1.228.5,2.45,0.678,3.685a1.556,1.556,0,0,0,1.563,1.182c1.285,0,2.573-.15,3.859-0.247a9.429,9.429,0,0,0,1.527-.171,1.423,1.423,0,0,0,1.1-1.438c0.072-2.089.164-4.179,0.181-6.27a1.018,1.018,0,0,1,.758-0.987c1.179-.589,2.369-1.172,3.539-1.792,0.32-.174.57-0.294,0.79,0.1a0.426,0.426,0,0,0,.15.148c0.82,0.525,1.64,1.035,2.44,1.573,0.85,0.567,1.68,1.155,2.52,1.746a1.745,1.745,0,0,0,2.51-.44c0.52-.665,1.11-1.269,1.65-1.913,0.51-.6,1.03-1.2,1.49-1.85a1.52,1.52,0,0,0-.3-1.9c-1.49-1.561-2.98-3.117-4.44-4.7a0.858,0.858,0,0,1-.11-0.745,13.491,13.491,0,0,0,1.26-3.905,0.719,0.719,0,0,1,.76-0.657,11.577,11.577,0,0,0,1.56-.282c1.65-.334,3.3-0.642,4.94-1.023a1.08,1.08,0,0,0,.96-1.321c-0.11-1.78-.25-3.558-0.41-5.333a1.313,1.313,0,0,0-1.35-1.2c-2.07-.072-4.15-0.12-6.23-0.185a1.053,1.053,0,0,1-1.23-.959c-0.36-.9-0.86-1.737-1.31-2.6-0.07-.141-0.18-0.261-0.26-0.4a0.887,0.887,0,0,1,0-1.262,21.546,21.546,0,0,0,1.67-2.565c0.52-.775,1.07-1.531,1.63-2.279a1.833,1.833,0,0,0-.44-2.731c-0.67-.543-1.32-1.109-1.98-1.665-0.57-.477-1.11-0.975-1.7-1.424a1.63,1.63,0,0,0-1.87.278c-1.35,1.317-2.72,2.621-4.08,3.928a1.142,1.142,0,0,0-.12.1c-0.76.73-.74,0.668-1.759,0.3-1.12-.4-2.283-0.7-3.438-1a0.92,0.92,0,0,1-.736-0.855c-0.094-.608-0.174-1.22-0.289-1.824-0.261-1.381-.549-2.758-0.8-4.14a1.689,1.689,0,0,0-1.894-1.347c-1.551.142-3.107,0.244-4.664,0.322a1.444,1.444,0,0,0-1.473,1.423c-0.054,2.037-.132,4.074-0.165,6.111a1.229,1.229,0,0,1-.863,1.274c-1.173.518-2.293,1.16-3.413,1.79a0.8,0.8,0,0,1-1.031-.153c-0.24-.178-2.5-1.813-3.542-2.466-0.752-.471-1.554-0.864-2.349-1.263a0.71,0.71,0,0,0-.516.015Zm33.125,20.621c-3.15,6.3-11.154,8.137-16.546,5.6a12.9,12.9,0,1,1,10.806-23.417C1004.7,137.264,1007.11,145.858,1003.5,151.788Z" transform="translate(-937.188 -119)"/>
</svg>
