<svg xmlns="http://www.w3.org/2000/svg" width="20" height="20" viewBox="0 0 20 20">
  <defs>
    <style>
      .IconSignInCirclePath {
        fill-rule: evenodd;
      }
    </style>
  </defs>
  <path id="icon-sign-in-circle" data-name="icon-sign-in-circle" class="IconSignInCirclePath" d="M131,150a10,10,0,1,0-16.754,7.366l-0.01.009,0.325,0.273c0.021,0.018.044,0.033,0.065,0.05,0.172,0.143.351,0.278,0.533,0.41,0.058,0.042.117,0.085,0.177,0.126,0.194,0.134.394,0.261,0.6,0.381,0.045,0.027.09,0.052,0.134,0.077,0.223,0.127.451,0.247,0.684,0.357l0.051,0.023a9.875,9.875,0,0,0,2.419.765l0.067,0.013c0.263,0.045.529,0.081,0.8,0.106l0.1,0.007c0.269,0.023.54,0.037,0.815,0.037s0.541-.014.808-0.036l0.1-.008q0.4-.036.792-0.1l0.068-.012a9.916,9.916,0,0,0,2.385-.748l0.083-.037q0.336-.159.659-0.341c0.053-.03.106-0.06,0.159-0.092,0.2-.115.388-0.235,0.575-0.363,0.067-.046.133-0.095,0.2-0.143,0.159-.114.316-0.233,0.469-0.357,0.033-.027.07-0.051,0.1-0.079l0.332-.278-0.009-.008A9.974,9.974,0,0,0,131,150Zm-19.273,0a9.273,9.273,0,1,1,15.422,6.932,2.739,2.739,0,0,0-.324-0.2l-3.079-1.539a0.8,0.8,0,0,1-.448-0.724V153.4c0.071-.088.146-0.187,0.224-0.3a7.39,7.39,0,0,0,.951-1.863,1.32,1.32,0,0,0,.759-1.2v-1.289a1.322,1.322,0,0,0-.323-0.861v-1.7a2.932,2.932,0,0,0-.685-2.133,5.087,5.087,0,0,0-6.448,0,2.93,2.93,0,0,0-.685,2.132v1.7a1.324,1.324,0,0,0-.323.862v1.289a1.323,1.323,0,0,0,.488,1.026,6.831,6.831,0,0,0,1.124,2.323v1.052a0.811,0.811,0,0,1-.422.712l-2.875,1.569a2.491,2.491,0,0,0-.274.173A9.25,9.25,0,0,1,111.727,150Z" transform="translate(-111 -140)"/>
</svg>
