<svg xmlns="http://www.w3.org/2000/svg" width="13" height="15" viewBox="0 0 13 15">
  <defs>
    <style>
      .IconSignOutPath {
        fill-rule: evenodd;
      }
    </style>
  </defs>
  <path id="icon-sign-out" data-name="icon-sign-out" class="IconSignOutPath" d="M1233.5,23a6.763,6.763,0,0,1-2.6-12.886,0.5,0.5,0,0,1,.78.479,1.9,1.9,0,0,1-.79,1.4,5.131,5.131,0,0,0-2.27,4.269,4.884,4.884,0,1,0,9.76,0,5.131,5.131,0,0,0-2.27-4.269,1.9,1.9,0,0,1-.79-1.4,0.5,0.5,0,0,1,.78-0.479A6.763,6.763,0,0,1,1233.5,23Zm0.05-6.85a0.877,0.877,0,0,1-.96-0.755V8.755A0.877,0.877,0,0,1,1233.55,8a0.774,0.774,0,0,1,.86.755V15.4A0.774,0.774,0,0,1,1233.55,16.15Z" transform="translate(-1227 -8)"/>
</svg>
