<svg xmlns="http://www.w3.org/2000/svg" width="92.969" height="74.938" viewBox="0 0 92.969 74.938">
  <path id="icon-software" data-name="icon-software" class="IconSoftwarePath" fill-rule="evenodd" d="M602.715,141.533H541.99v55.431h60.725V141.533Zm-32.164,4.279a4.043,4.043,0,1,1-4.017,4.043A4.029,4.029,0,0,1,570.551,145.812Zm-10.174,0a4.043,4.043,0,1,1-4.017,4.043A4.028,4.028,0,0,1,560.377,145.812Zm-10.176,0a4.043,4.043,0,1,1-4.017,4.043A4.03,4.03,0,0,1,550.2,145.812Zm48.9,47.514H545.6V157.762h53.5v35.564ZM595.084,159.8H547.771v31.345H596.93V159.8h-1.846Zm0.656,30.148H548.961v-28.8H595.74v28.8ZM632.6,128.97c0.582,1.14,1.108,2.157,1.69,3.294q-1.9,1.743-3.779,3.468a1.936,1.936,0,0,0,.276,3.153c1.383,0.867,2.785,1.709,4.136,2.536a0.868,0.868,0,0,1,.052.309c-1.01,3.48-1.006,3.459-4.69,3.171-1.153-.091-2.487-0.668-3.248.819a2.065,2.065,0,0,0-.275,1.221c0.333,1.683.764,3.347,1.182,5.135-0.874.474-1.737,1.015-2.662,1.4a1.261,1.261,0,0,1-1.1-.285c-1.065-1.079-2.052-2.237-3.074-3.358a1.828,1.828,0,0,0-2.869.279c-0.708,1.152-1.448,2.293-2.075,3.489a1.222,1.222,0,0,1-1.786.631c-2.329-.812-2.321-0.774-2.153-3.291,0.068-1.024.068-2.056,0.05-3.084a2.006,2.006,0,0,0-2.124-1.631c-1.474.326-2.937,0.727-4.42,0.994a1.333,1.333,0,0,1-1.093-.5,25.86,25.86,0,0,1-1.324-2.591c1.285-1.171,2.563-2.317,3.819-3.484a2.033,2.033,0,0,0-.3-3.084c-1.217-.755-2.456-1.475-3.643-2.275a1.171,1.171,0,0,1-.46-0.939,9.7,9.7,0,0,1,.761-2.333,1.294,1.294,0,0,1,1-.581c1.346,0.012,2.692.147,4.041,0.225a2.149,2.149,0,0,0,2.212-2.755c-0.3-1.194-.6-2.39-0.9-3.582a1.094,1.094,0,0,1,.625-1.483c2.42-1.239,2.4-1.276,4.233.75,0.442,0.486.89,0.966,1.326,1.457,1.267,1.427,2.732,1.295,3.7-.329,0.653-1.092,1.3-2.188,1.99-3.253a0.968,0.968,0,0,1,.719-0.452,20.4,20.4,0,0,1,2.792.876,1.081,1.081,0,0,1,.281.84q-0.03,2.16-.158,4.316a2.041,2.041,0,0,0,2.4,2.116C629.324,129.792,630.9,129.39,632.6,128.97Zm-7.81,9.186a6.045,6.045,0,1,0-12.089,0A6.045,6.045,0,1,0,624.789,138.156Z" transform="translate(-542 -122.031)"/>
</svg>
