<svg xmlns="http://www.w3.org/2000/svg" width="64" height="64" viewBox="0 0 64 64">
  <defs>
    <style>
      .IconSupportPath {        
        fill-rule: evenodd;
      }
    </style>
  </defs>
  <path id="icon-support" data-name="icon-support" class="IconSupportPath" d="M696.851,3000H680.674A14.034,14.034,0,0,0,670,2989.32v-16.17a29.776,29.776,0,0,1,5.927,1.2,13.988,13.988,0,0,1,19.722,19.72A29.908,29.908,0,0,1,696.851,3000ZM685,2975a9.9,9.9,0,0,0-4.629,1.14,30.136,30.136,0,0,1,13.489,13.49A9.994,9.994,0,0,0,685,2975Zm-36,60a13.987,13.987,0,0,1-10.649-23.07,30.053,30.053,0,0,1-1.2-5.93h16.177A14.008,14.008,0,0,0,664,3016.67v16.18a29.776,29.776,0,0,1-5.927-1.2A13.972,13.972,0,0,1,649,3035Zm-8.86-18.63a9.993,9.993,0,0,0,13.488,13.49A30.139,30.139,0,0,1,640.14,3016.37ZM653.325,3000H637.149a29.908,29.908,0,0,1,1.2-5.93,13.988,13.988,0,0,1,19.722-19.72,29.776,29.776,0,0,1,5.927-1.2v16.17A14.037,14.037,0,0,0,653.325,3000ZM649,2975a9.994,9.994,0,0,0-8.86,14.63,30.139,30.139,0,0,1,13.488-13.49A9.893,9.893,0,0,0,649,2975Zm31.674,31h16.177a30.053,30.053,0,0,1-1.2,5.93,13.988,13.988,0,0,1-19.722,19.72,29.776,29.776,0,0,1-5.927,1.2v-16.18A14.008,14.008,0,0,0,680.674,3006ZM685,3031a9.994,9.994,0,0,0,8.86-14.63,30.136,30.136,0,0,1-13.489,13.49A9.9,9.9,0,0,0,685,3031Z" transform="translate(-635 -2971)"/>
</svg>
