<svg xmlns="http://www.w3.org/2000/svg" width="14" height="16" viewBox="0 0 14 16">
  <defs>
    <style>
      .IconThanksPath {
        fill-rule: evenodd;
      }
    </style>
  </defs>
  <path id="icon-thanks" data-name="icon-thanks" class="IconThanksPath" d="M1156.72,3365.84a1.285,1.285,0,0,0,.16-2.56l-4.48-.57a8.38,8.38,0,0,0,.93-3.93,1.588,1.588,0,0,0-1.75-1.78c-0.51,0-.64,1-0.64,1h-0.01a7.029,7.029,0,0,1-.78,2.24c-0.59,1.16-1.38,1.05-2.31,2.09a4.63,4.63,0,0,0-.6.85,0.158,0.158,0,0,0-.05.08,1.339,1.339,0,0,1-.06.12,1.983,1.983,0,0,0-.11.2,2.464,2.464,0,0,1-1.85.53,1.067,1.067,0,0,0-1.17,1.18v5.42a0.953,0.953,0,0,0,1.17,1.1h1.16a5.642,5.642,0,0,1,1.75.59,14.79,14.79,0,0,0,4.88.6h1.78a1.411,1.411,0,0,0,.98-0.42,0.791,0.791,0,0,0,.22-0.47,0.831,0.831,0,0,0,.01-0.22,0.959,0.959,0,0,0-.63-1.05h0.02l0.76,0.03a1.268,1.268,0,0,0,1.34-1.3,1.234,1.234,0,0,0-1.23-1.22l0.4,0.02A1.267,1.267,0,0,0,1156.72,3365.84Z" transform="translate(-1144 -3357)"/>
</svg>
