<svg xmlns="http://www.w3.org/2000/svg" width="60" height="59" viewBox="0 0 60 59">
  <defs>
    <style>
      .IconToolsPath {
        fill-rule: evenodd;
      }
    </style>
  </defs>
  <path id="icon-tools" data-name="icon-tools" class="IconToolsPath" d="M462.44,2995.95l-4.5,4.48a1.921,1.921,0,0,1-2.7,0,1.89,1.89,0,0,1,0-2.69l0.568-.57h-0.022c-1.04-.75-4.3-3.96-5.456-3.38-1.023.51-2.265-.57-2.265-0.57l-0.682-.69-17.431,17.37a3.581,3.581,0,0,0-.5-0.66l-2.933-2.92a3.405,3.405,0,0,0-.668-0.5l17.431-17.37-0.369-.37s-0.982-1.09-.309-1.99c1.75-2.34.469-8.41-9.854-10.21-1.418-.25-1.672-0.54-0.306-1.01,3.4-1.17,10.555-1.41,21.263,9.26,0,0,4.312,4.98,3.763,7.09-0.131.48,0.9,1.93,1.522,2.79l0.75-.75a1.918,1.918,0,0,1,2.7,0A1.9,1.9,0,0,1,462.44,2995.95Zm-29.816-.22-7.427,7.4-6.781-6.76a11.708,11.708,0,0,1-3.531.55,11.457,11.457,0,0,1-10.362-16.4,0.774,0.774,0,0,1,.58-0.43,0.782,0.782,0,0,1,.692.22l7.137,7.11a2.847,2.847,0,0,0,3.931,0,2.76,2.76,0,0,0,0-3.92l-7.135-7.11a0.789,0.789,0,0,1,.218-1.27,11.677,11.677,0,0,1,4.97-1.12,11.457,11.457,0,0,1,10.93,14.96Zm-9.706,11.67a1.827,1.827,0,0,1,2.426.09l2.933,2.92a1.808,1.808,0,0,1,.088,2.42l-17.371,19.31a1.534,1.534,0,0,1-2.256.08l-5.276-5.26a1.515,1.515,0,0,1,.085-2.25Zm17.165-4.25,7.5,7.48a11.736,11.736,0,0,1,3.536-.55,11.452,11.452,0,0,1,10.358,16.39,0.763,0.763,0,0,1-.58.44,0.8,0.8,0,0,1-.692-0.22l-7.136-7.11a2.845,2.845,0,0,0-3.93,0,2.761,2.761,0,0,0,0,3.92l7.135,7.11a0.789,0.789,0,0,1-.219,1.27,11.674,11.674,0,0,1-4.97,1.12,11.456,11.456,0,0,1-10.93-14.96l-7.5-7.48Z" transform="translate(-403 -2974)"/>
</svg>
