<svg xmlns="http://www.w3.org/2000/svg" width="90" height="52" viewBox="0 0 90 52">
  <defs>
    <style>
      .IconTrainingPath {
        fill-rule: evenodd;
      }
    </style>
  </defs>
  <path id="icon-training" data-name="icon-training" class="IconTrainingPath" d="M939.848,3000.73L913,3008.96l-26.848-8.23-2.187-.78,4.729-1.53,0.448-1.1-6.343,1.42v1.59l-1.132,19.03a8.815,8.815,0,0,1-8.523,0c-1-6.96,5.826-21.19,5.826-21.19l0.441-1.3,3.024-.72-0.5-.52-3.523.3-0.818,1.75L868,2994.26,913,2977l45,17.26Zm0,3v13.6c0,0.05.017,0.1,0.017,0.15,0,6.36-12.026,11.52-26.857,11.52s-26.856-5.16-26.856-11.52v-13.75L913,3011.96Z" transform="translate(-868 -2977)"/>
</svg>
