<svg xmlns="http://www.w3.org/2000/svg" width="30" height="24" viewBox="0 0 30 24">
  <defs>
    <style>
      .IconTwitterPath {
        fill: #279cd2;
        fill-rule: evenodd;
      }
    </style>
  </defs>
  <path id="icon-twitter" data-name="icon-twitter" class="IconTwitterPath" d="M729.173,1935.44a12.294,12.294,0,0,1-3.911,1.47,6.176,6.176,0,0,0-4.491-1.91,6.106,6.106,0,0,0-6.156,6.06,5.99,5.99,0,0,0,.16,1.38,17.574,17.574,0,0,1-12.685-6.33,5.922,5.922,0,0,0-.832,3.04A6.054,6.054,0,0,0,704,1944.2a6.373,6.373,0,0,1-2.788-.76v0.07a6.086,6.086,0,0,0,4.936,5.94,6.176,6.176,0,0,1-1.621.22,6.325,6.325,0,0,1-1.159-.11,6.163,6.163,0,0,0,5.748,4.21,12.5,12.5,0,0,1-7.643,2.59,14.192,14.192,0,0,1-1.468-.08,17.7,17.7,0,0,0,9.434,2.72,17.253,17.253,0,0,0,17.51-17.24l-0.02-.79a12.315,12.315,0,0,0,3.076-3.13,12.292,12.292,0,0,1-3.533.95A6.121,6.121,0,0,0,729.173,1935.44Z" transform="translate(-700 -1935)"/>
</svg>
