<svg xmlns="http://www.w3.org/2000/svg" width="17" height="14" viewBox="0 0 17 14">
  <defs>
    <style>
      .IconUsersPath {
        fill-rule: evenodd;
      }
    </style>
  </defs>
  <path id="icon-users" data-name="icon-users" class="IconUsersPath" d="M121.259,324.4a3.018,3.018,0,0,1,1.438,2.246,2.53,2.53,0,0,0,1.053.231A2.441,2.441,0,1,0,121.259,324.4Zm-1.634,5a2.441,2.441,0,1,0-2.493-2.44A2.467,2.467,0,0,0,119.625,329.4Zm1.058,0.167h-2.116a3.162,3.162,0,0,0-3.192,3.124v2.533l0.006,0.039,0.179,0.055A14.811,14.811,0,0,0,119.9,336a9.066,9.066,0,0,0,3.79-.7l0.166-.082h0.018v-2.533A3.162,3.162,0,0,0,120.683,329.565Zm4.125-2.52h-2.1a2.98,2.98,0,0,1-.948,2.095,3.726,3.726,0,0,1,2.709,3.553v0.78a8.728,8.728,0,0,0,3.346-.688l0.167-.082H128V330.17A3.163,3.163,0,0,0,124.808,327.045Zm-9.558-.166a2.509,2.509,0,0,0,1.326-.377,3.013,3.013,0,0,1,1.16-1.926c0-.046.007-0.091,0.007-0.137A2.494,2.494,0,1,0,115.25,326.879Zm2.24,2.261a2.978,2.978,0,0,1-.948-2.083c-0.078-.006-0.155-0.012-0.234-0.012h-2.116A3.163,3.163,0,0,0,111,330.17V332.7l0.006,0.04,0.179,0.054a15.252,15.252,0,0,0,3.595.662v-0.765A3.724,3.724,0,0,1,117.49,329.14Z" transform="translate(-111 -322)"/>
</svg>
