<svg xmlns="http://www.w3.org/2000/svg" width="30" height="17" viewBox="0 0 30 17">
  <defs>
    <style>
      .IconVKPath {
        fill: #507299;
        fill-rule: evenodd;
      }
    </style>
  </defs>
  <path id="icon-vk" data-name="icon-vk" class="IconVKPath" d="M257.82,1948.81a40.616,40.616,0,0,1,2.938,2.96,8.165,8.165,0,0,1,1.053,1.52,1.082,1.082,0,0,1-.665,1.69h-4.371a3.355,3.355,0,0,1-2.782-1.13c-0.6-.62-1.166-1.28-1.748-1.91a4.023,4.023,0,0,0-.786-0.7,0.912,0.912,0,0,0-1.455.35,4.606,4.606,0,0,0-.461,2.04c-0.046,1.03-.357,1.3-1.391,1.35a11.086,11.086,0,0,1-6.254-1.35,13.781,13.781,0,0,1-4.208-3.94,53.107,53.107,0,0,1-5.539-9.89c-0.349-.77-0.093-1.19.765-1.21,1.426-.03,2.852-0.02,4.279,0a1.257,1.257,0,0,1,1.187.89,26.382,26.382,0,0,0,2.9,5.38,4.647,4.647,0,0,0,1.095,1.21,0.669,0.669,0,0,0,1.132-.34,3.657,3.657,0,0,0,.251-1.13,16.789,16.789,0,0,0-.07-3.95,1.655,1.655,0,0,0-1.4-1.51c-0.418-.08-0.356-0.23-0.154-0.47a1.554,1.554,0,0,1,1.341-.67h4.939a1.175,1.175,0,0,1,1.057,1.29l0,5.49a1.6,1.6,0,0,0,.7,1.4,0.953,0.953,0,0,0,.987-0.48,17.072,17.072,0,0,0,2.78-4.28c0.335-.68.623-1.38,0.9-2.08a1.064,1.064,0,0,1,1.117-.77l4.754,0.01a2.919,2.919,0,0,1,.42.02,0.828,0.828,0,0,1,.773,1.27,11.875,11.875,0,0,1-1.89,3.28c-0.792,1.1-1.64,2.16-2.427,3.26-0.722,1.01-.664,1.52.233,2.4h0Z" transform="translate(-232 -1938)"/>
</svg>
