<svg xmlns="http://www.w3.org/2000/svg" width="25" height="30" viewBox="0 0 25 30">
  <defs>
    <style>
      .IconYouTubePath {
        fill: #cc181e;
        fill-rule: evenodd;
      }
    </style>
  </defs>
  <path id="icon-youtube" data-name="icon-youtube" class="IconYouTubePath" d="M253.146,2191.94H251.5l0.008-.95a0.779,0.779,0,0,1,.775-0.78h0.105a0.781,0.781,0,0,1,.778.78Zm-6.175-2.05a0.7,0.7,0,0,0-.759.63v4.65a0.776,0.776,0,0,0,1.52,0v-4.65A0.7,0.7,0,0,0,246.971,2189.89Zm10.029-2.6v8.85a3.994,3.994,0,0,1-4.09,3.86H236.09a3.993,3.993,0,0,1-4.09-3.86v-8.85a3.993,3.993,0,0,1,4.09-3.86h16.82A3.994,3.994,0,0,1,257,2187.29Zm-19.788,9.81v-9.32H239.3v-1.38l-5.558-.01v1.36h1.735v9.35h1.739Zm6.25-7.93h-1.738v4.98a8.568,8.568,0,0,1,0,1.2c-0.141.39-.776,0.8-1.024,0.04a9.875,9.875,0,0,1-.006-1.21l-0.007-5.01h-1.728l0.005,4.93c0,0.76-.017,1.32.006,1.58a1.584,1.584,0,0,0,.447,1.28,2.109,2.109,0,0,0,2.656-.89l0,1.03h1.4v-7.93h0Zm5.561,5.7,0-4.14c0-1.58-1.182-2.53-2.785-1.25l0.007-3.08H244.5l-0.008,10.63,1.428-.02,0.13-.66C247.879,2198.02,249.026,2196.88,249.023,2194.87Zm5.44-.55-1.3.01c0,0.05,0,.11,0,0.17v0.73a0.706,0.706,0,0,1-.712.7h-0.256a0.705,0.705,0,0,1-.712-0.7v-1.91h2.984v-1.13a17.722,17.722,0,0,0-.089-2.11c-0.213-1.48-2.3-1.72-3.35-.96a2,2,0,0,0-.729.98,5.533,5.533,0,0,0-.222,1.75v2.47C250.071,2198.43,255.059,2197.85,254.463,2194.32Zm-6.685-13.41a1.2,1.2,0,0,0,.418.53,1.216,1.216,0,0,0,.711.19,1.1,1.1,0,0,0,.666-0.2,1.6,1.6,0,0,0,.487-0.63l-0.032.69h1.937v-8.24H250.44v6.41a0.635,0.635,0,0,1-1.27,0v-6.41h-1.593v5.55c0,0.71.013,1.18,0.034,1.42A2.386,2.386,0,0,0,247.778,2180.91Zm-5.873-4.65a6.878,6.878,0,0,1,.2-1.86,2.091,2.091,0,0,1,.712-1.07,2.056,2.056,0,0,1,1.314-.4,2.32,2.32,0,0,1,1.153.26,1.865,1.865,0,0,1,.743.67,2.718,2.718,0,0,1,.359.86,6.9,6.9,0,0,1,.1,1.35v2.08a11.46,11.46,0,0,1-.09,1.69,2.647,2.647,0,0,1-.382,1,1.737,1.737,0,0,1-.746.68,2.358,2.358,0,0,1-1.051.23,3.059,3.059,0,0,1-1.12-.19,1.577,1.577,0,0,1-.715-0.57,2.6,2.6,0,0,1-.364-0.93,8.855,8.855,0,0,1-.108-1.62v-2.18h0Zm1.518,3.27a0.774,0.774,0,1,0,1.54,0v-4.39a0.774,0.774,0,1,0-1.54,0v4.39Zm-5.362,2.21h1.828l0-6.32,2.16-5.41h-2l-1.148,4.02-1.165-4.03H235.76l2.3,5.43Z" transform="translate(-232 -2170)"/>
</svg>
